<svg width="34" height="34" viewBox="0 0 34 34" fill="none" xmlns="http://www.w3.org/2000/svg">
    <path fill-rule="evenodd" clip-rule="evenodd" d="M19.0762 7.42374L24.0466 2.45337C25.3799 1.12004 26.0466 0.453369 26.875 0.453369C27.7034 0.453369 28.3701 1.12004 29.7034 2.45337L31.5466 4.29651L31.5466 4.29653C32.8799 5.62985 33.5466 6.29652 33.5466 7.12494C33.5466 7.95337 32.8799 8.62003 31.5466 9.95335L31.5466 9.95337L26.6168 14.8831C23.5059 13.0672 20.9145 10.4951 19.0762 7.42374ZM17.622 8.87797L3.3564 23.1436C2.93134 23.5686 2.71881 23.7812 2.57907 24.0423C2.43934 24.3033 2.38039 24.5981 2.2625 25.1875L0.772104 32.6395C0.705582 32.9721 0.672321 33.1384 0.766929 33.233C0.861529 33.3276 1.02782 33.2944 1.36037 33.2279L1.36042 33.2279L1.36045 33.2279L8.81243 31.7375C9.40189 31.6196 9.69661 31.5606 9.95771 31.4209C10.2188 31.2812 10.4313 31.0686 10.8564 30.6436L25.1588 16.3411C22.0986 14.4611 19.5215 11.9022 17.622 8.87797Z" fill="#26468B"/>
</svg>
