<svg width="38" height="30" viewBox="0 0 38 30" fill="none" xmlns="http://www.w3.org/2000/svg">
    <path fill-rule="evenodd" clip-rule="evenodd" d="M0.250698 5.66657C0.415076 5.66653 0.581761 5.7071 0.735643 5.79259L19 15.9395L37.2644 5.79259C37.4182 5.7071 37.5849 5.66654 37.7493 5.66657C37.7425 3.33096 37.6686 2.09273 36.8713 1.29543C35.9926 0.416748 34.5784 0.416748 31.75 0.416748H6.25C3.42157 0.416748 2.00736 0.416748 1.12868 1.29543C0.33138 2.09273 0.257537 3.33096 0.250698 5.66657ZM37.75 7.81071L19.9713 17.6878C19.3672 18.0233 18.6328 18.0233 18.0287 17.6878L0.25 7.81071V23.5834C0.25 26.4118 0.25 27.8261 1.12868 28.7047C2.00736 29.5834 3.42157 29.5834 6.25 29.5834H31.75C34.5784 29.5834 35.9926 29.5834 36.8713 28.7047C37.75 27.8261 37.75 26.4118 37.75 23.5834V7.81071Z" fill="#26468B"/>
</svg>
