<svg width="20" height="18" viewBox="0 0 20 18" fill="none" xmlns="http://www.w3.org/2000/svg">
    <path d="M15.1567 14H11.1567M19.1457 7C19.1567 7.57703 19.1567 8.23647 19.1567 9C19.1567 11.8003 19.1567 13.2004 18.6118 14.27C18.1324 15.2108 17.3675 15.9757 16.4267 16.455C15.3571 17 13.957 17 11.1567 17H9.15674C6.35648 17 4.95634 17 3.88679 16.455C2.94598 15.9757 2.18107 15.2108 1.70171 14.27C1.15674 13.2004 1.15674 11.8003 1.15674 9C1.15674 8.23647 1.15674 7.57703 1.16779 7M19.1457 7C19.1162 5.46078 19.0081 4.50797 18.6118 3.73005C18.1324 2.78924 17.3675 2.02433 16.4267 1.54497C15.3571 1 13.957 1 11.1567 1H9.15674C6.35648 1 4.95634 1 3.88679 1.54497C2.94598 2.02433 2.18107 2.78924 1.70171 3.73005C1.30533 4.50797 1.19725 5.46078 1.16779 7M19.1457 7H1.16779" stroke="#5668FF" stroke-width="1.5" stroke-linecap="round"/>
</svg>
