<svg width="7" height="12" viewBox="0 0 7 12" fill="none" xmlns="http://www.w3.org/2000/svg">
    <path d="M1.44487 11.9501C1.57186 11.9506 1.69733 11.9225 1.81206 11.8681C1.92679 11.8137 2.02787 11.7343 2.10787 11.6356L6.21337 6.53564C6.33839 6.38354 6.40674 6.19277 6.40674 5.99589C6.40674 5.79901 6.33839 5.60823 6.21337 5.45614L1.96337 0.356137C1.8191 0.182553 1.61177 0.0733918 1.38701 0.052669C1.16225 0.0319463 0.938458 0.101359 0.764873 0.245637C0.591289 0.389914 0.482129 0.597239 0.461406 0.822002C0.440683 1.04676 0.510096 1.27055 0.654373 1.44414L4.45387 6.00014L0.781874 10.5561C0.677933 10.6809 0.611908 10.8328 0.59161 10.994C0.571312 11.1551 0.597592 11.3186 0.667339 11.4653C0.737087 11.6119 0.847383 11.7355 0.985176 11.8215C1.12297 11.9074 1.28249 11.952 1.44487 11.9501Z" fill="#707070"/>
</svg>
