<svg width="149" height="26" viewBox="0 0 149 26" fill="none" xmlns="http://www.w3.org/2000/svg">
    <path d="M12.3599 21.4627C13.0731 21.162 13.6987 20.7433 14.2374 20.2053C14.7753 19.6667 15.1905 19.0445 15.485 18.3376C15.7789 17.6306 15.9272 16.8823 15.9272 16.0946C15.9272 15.2931 15.7789 14.5393 15.485 13.8323C15.1905 13.1247 14.7753 12.5025 14.2374 11.9645C13.6987 11.4259 13.0731 11.01 12.3599 10.7155C11.6467 10.4223 10.8895 10.2747 10.0887 10.2747C9.28792 10.2747 8.53059 10.4223 7.81742 10.7155C7.10424 11.01 6.47799 11.4259 5.94001 11.9645C5.40202 12.5025 4.98269 13.1247 4.68197 13.8323C4.38263 14.5393 4.23158 15.2931 4.23158 16.0946C4.23158 16.8823 4.38263 17.6306 4.68197 18.3376C4.98269 19.0445 5.40202 19.6667 5.94001 20.2053C6.47799 20.7433 7.10424 21.162 7.81742 21.4627C8.53059 21.7634 9.28792 21.9131 10.0887 21.9131C10.8895 21.9131 11.6467 21.7634 12.3599 21.4627ZM6.55042 24.523C5.42962 24.0471 4.45021 23.3898 3.6122 22.5511C2.76108 21.7131 2.09828 20.7371 1.62306 19.6232C1.14647 18.5093 0.90918 17.3333 0.90918 16.0946V2.01534C0.90918 1.55253 1.07198 1.14559 1.39683 0.795212C1.72238 0.469664 2.11619 0.306885 2.57968 0.306885C3.05559 0.306885 3.446 0.469664 3.75293 0.795212C4.05986 1.12076 4.21297 1.52701 4.21297 2.01534V10.4251C4.43851 9.92436 4.75437 9.4581 5.16062 9.02633C5.56755 8.59457 6.0338 8.22213 6.56006 7.90968C7.08562 7.59655 7.6512 7.35238 8.25885 7.17719C8.86511 7.002 9.47483 6.91442 10.0887 6.91442C11.3274 6.91442 12.5068 7.15237 13.6276 7.62759C14.747 8.1035 15.7265 8.76011 16.5652 9.59881C17.4032 10.4499 18.057 11.4328 18.526 12.546C18.9957 13.6599 19.2309 14.8421 19.2309 16.0946C19.2309 17.3333 18.9957 18.5093 18.526 19.6232C18.057 20.7371 17.4032 21.7131 16.5652 22.5511C15.7265 23.3898 14.747 24.0471 13.6276 24.523C12.5068 24.9982 11.3274 25.2362 10.0887 25.2362C8.84995 25.2362 7.66983 24.9982 6.55042 24.523Z" fill="#4ADDC4"/>
    <path d="M22.4664 24.6808C22.1347 24.3614 21.9684 23.9704 21.9684 23.5076V8.58409C21.9684 8.10818 22.1381 7.71366 22.4761 7.40122C22.8009 7.07567 23.201 6.91289 23.6776 6.91289C24.1273 6.91289 24.5094 7.07567 24.8225 7.40122C25.1349 7.72677 25.2915 8.12059 25.2915 8.58409V23.5076C25.2915 23.9704 25.1315 24.3614 24.8129 24.6808C24.4935 25.0001 24.1093 25.1587 23.6589 25.1587C23.1954 25.1587 22.7975 25.0001 22.4664 24.6808ZM22.3257 4.13469C21.9505 3.75948 21.7622 3.32151 21.7622 2.82077C21.7622 2.30762 21.9505 1.86343 22.3257 1.48822C22.6878 1.12543 23.1327 0.943359 23.6589 0.943359C24.159 0.943359 24.6039 1.12543 24.9915 1.48822C25.3667 1.8386 25.5543 2.28279 25.5543 2.82077C25.5543 3.34634 25.3667 3.785 24.9915 4.13469C24.5908 4.50989 24.1466 4.6982 23.6589 4.6982C23.1451 4.6982 22.7009 4.50989 22.3257 4.13469Z" fill="#4ADDC4"/>
    <path d="M36.9956 24.5865C36.6949 24.8927 36.3073 25.0465 35.832 25.0465H35.8127H35.7941C34.9175 25.0465 34.1015 24.8962 33.3449 24.5961C32.5869 24.2954 31.9269 23.8636 31.364 23.3008C30.7881 22.7373 30.3439 22.071 30.0308 21.3013C29.7183 20.5316 29.5625 19.6846 29.5625 18.7583V2.08847C29.5625 1.61325 29.7183 1.21598 30.0308 0.896635C30.3439 0.577294 30.7261 0.417969 31.1757 0.417969C31.6386 0.417969 32.0393 0.575225 32.3779 0.887668C32.7152 1.22494 32.8849 1.62567 32.8849 2.08847V18.7583C32.8849 19.7219 33.1442 20.4661 33.6636 20.9916C34.1829 21.5172 34.8995 21.7807 35.8127 21.7807C36.2886 21.7807 36.6797 21.9365 36.986 22.249C37.2929 22.5621 37.446 22.9505 37.446 23.4133C37.446 23.8892 37.2963 24.2802 36.9956 24.5865Z" fill="#4ADDC4"/>
    <path d="M47.5842 24.5865C47.2834 24.8927 46.8959 25.0465 46.4206 25.0465H46.4013H46.3827C45.506 25.0465 44.6901 24.8962 43.9328 24.5961C43.1755 24.2954 42.5154 23.8636 41.9526 23.3008C41.3767 22.7373 40.9325 22.071 40.6194 21.3013C40.307 20.5316 40.1504 19.6846 40.1504 18.7583V2.08847C40.1504 1.61325 40.307 1.21598 40.6194 0.896635C40.9325 0.577294 41.3139 0.417969 41.7643 0.417969C42.2271 0.417969 42.6278 0.575225 42.9665 0.887668C43.3038 1.22494 43.4727 1.62567 43.4727 2.08847V18.7583C43.4727 19.7219 43.7328 20.4661 44.2521 20.9916C44.7715 21.5172 45.4881 21.7807 46.4013 21.7807C46.8772 21.7807 47.2683 21.9365 47.5745 22.249C47.8815 22.5621 48.0339 22.9505 48.0339 23.4133C48.0339 23.8892 47.8849 24.2802 47.5842 24.5865Z" fill="#4ADDC4"/>
    <path d="M49.8769 24.5594C49.5893 24.247 49.4458 23.84 49.4458 23.3393C49.4458 22.851 49.5858 22.4606 49.8672 22.1661C50.1493 21.8723 50.5156 21.7254 50.9653 21.7254H58.4749C58.7494 21.7254 59.0253 21.6778 59.3005 21.5847C59.5764 21.4909 59.8261 21.3501 60.0516 21.1619C60.5517 20.7494 60.8021 20.2052 60.8021 19.5293C60.8021 18.8658 60.5641 18.3588 60.0889 18.0085C59.6261 17.6829 59.0936 17.5077 58.4935 17.4822H55.0022C54.2759 17.4822 53.5938 17.3387 52.9558 17.0511C52.3171 16.7628 51.7543 16.3628 51.2667 15.8496C50.7901 15.3613 50.4211 14.7888 50.1583 14.1322C49.8955 13.4756 49.7644 12.79 49.7644 12.0762C49.7644 11.3761 49.9017 10.7091 50.1776 10.0774C50.4528 9.44558 50.828 8.89174 51.3032 8.41583C51.7791 7.94061 52.3357 7.5716 52.9744 7.30882C53.6124 7.04535 54.2883 6.91431 55.0022 6.91431H61.5159C61.9904 6.91431 62.3856 7.05846 62.6981 7.34608C63.0112 7.63369 63.1678 8.02821 63.1678 8.52894C63.1678 9.00416 63.0175 9.40489 62.7167 9.73044C62.4036 10.0684 62.0346 10.2367 61.6097 10.2367H55.0201C54.4945 10.2367 54.038 10.4312 53.6503 10.8188C53.2751 11.2195 53.0868 11.6761 53.0868 12.1893C53.0868 12.7645 53.2813 13.228 53.669 13.5784C54.0697 13.9536 54.5194 14.1419 55.0201 14.1419H58.7936C59.5323 14.1419 60.233 14.2854 60.8965 14.573C61.5594 14.8613 62.1291 15.262 62.6043 15.7751C63.0795 16.2752 63.4492 16.8601 63.712 17.5298C63.9741 18.1988 64.1058 18.8906 64.1058 19.6038C64.1058 20.3425 63.9741 21.0398 63.712 21.6978C63.4492 22.3544 63.074 22.9269 62.5857 23.4145C62.0974 23.9276 61.5256 24.3249 60.8682 24.6063C60.2103 24.8884 59.5068 25.0291 58.7564 25.0291H50.9653C50.5273 25.0291 50.1652 24.8726 49.8769 24.5594Z" fill="#6272F0"/>
    <path d="M67.2303 24.558C66.9048 24.2455 66.7427 23.8517 66.7427 23.3758V12.5258C66.7427 11.6995 66.902 10.9112 67.2206 10.1601C67.5407 9.40964 67.9883 8.74612 68.5635 8.1709C69.127 7.6074 69.7802 7.16666 70.5251 6.84732C71.2693 6.52798 72.0618 6.36865 72.9005 6.36865C73.7758 6.36865 74.6021 6.54384 75.378 6.89421C76.1539 7.24459 76.8354 7.72671 77.423 8.33918C77.9989 7.72671 78.6755 7.24459 79.4515 6.89421C80.2274 6.54384 81.053 6.36865 81.9297 6.36865C82.7663 6.36865 83.5684 6.52798 84.3326 6.84732C85.0948 7.16666 85.7714 7.6074 86.3583 8.1709C86.9336 8.74612 87.3881 9.41307 87.7206 10.1697C88.0516 10.927 88.2171 11.7119 88.2171 12.5258V23.3758C88.2171 23.8517 88.0571 24.2455 87.7378 24.558C87.4191 24.8711 87.0288 25.0277 86.566 25.0277C86.1025 25.0277 85.7121 24.8711 85.3927 24.558C85.0727 24.2455 84.9141 23.8517 84.9141 23.3758V12.6196C84.9016 12.2437 84.8161 11.8843 84.6603 11.5402C84.503 11.196 84.2871 10.8863 84.0133 10.6111C83.7367 10.3477 83.4181 10.1449 83.0553 10.0007C82.6918 9.85725 82.3228 9.78484 81.9476 9.78484C81.1972 9.78484 80.5516 10.0414 80.0143 10.5546C79.4756 11.0553 79.1763 11.6809 79.1135 12.432C79.1259 12.4568 79.1328 12.532 79.1328 12.6568V23.3378C79.1328 23.5634 79.0873 23.7793 79.0011 23.9862C78.9128 24.1924 78.7949 24.371 78.6438 24.5207C78.3183 24.8463 77.9306 25.0083 77.4796 25.0083C77.0175 25.0083 76.6257 24.8463 76.307 24.5207C75.9877 24.1959 75.8284 23.8013 75.8284 23.3378V12.7506C75.8284 12.3506 75.7553 11.9692 75.6125 11.6057C75.4677 11.2429 75.2711 10.9236 75.0214 10.6484C74.4331 10.06 73.7447 9.76621 72.9557 9.76621C72.2308 9.76621 71.5914 10.0104 71.0417 10.498C70.7789 10.7235 70.5624 10.9898 70.3934 11.296C70.2251 11.6029 70.1161 11.9312 70.0651 12.2816C70.0899 12.4065 70.103 12.5065 70.103 12.5817L70.0471 23.3758C70.0471 23.8517 69.8871 24.2455 69.5678 24.558C69.2491 24.8711 68.8636 25.0277 68.4139 25.0277C67.9497 25.0277 67.5566 24.8711 67.2303 24.558Z" fill="#6272F0"/>
    <path d="M101.987 21.4812C102.694 21.1805 103.317 20.7549 103.855 20.2045C104.393 19.6665 104.809 19.0444 105.104 18.3368C105.397 17.6305 105.544 16.8821 105.544 16.0938C105.544 15.3054 105.397 14.5578 105.104 13.8508C104.809 13.1432 104.393 12.521 103.855 11.9831C103.317 11.4444 102.694 11.025 101.987 10.725C101.28 10.4243 100.52 10.2746 99.7068 10.2746C98.9053 10.2746 98.1508 10.4243 97.4445 10.725C96.7375 11.025 96.114 11.4444 95.5767 11.9831C95.0387 12.521 94.6187 13.1432 94.3194 13.8508C94.018 14.5578 93.8683 15.3054 93.8683 16.0938C93.8683 16.8821 94.018 17.6305 94.3194 18.3368C94.6187 19.0444 95.0387 19.6665 95.5767 20.2045C96.114 20.7549 96.7375 21.1805 97.4445 21.4812C98.1508 21.7819 98.9053 21.9309 99.7068 21.9309C100.52 21.9309 101.28 21.7819 101.987 21.4812ZM96.1871 24.5498C95.0788 24.0815 94.0993 23.4214 93.2489 22.5703C92.3978 21.7316 91.735 20.7515 91.2591 19.6321C90.7832 18.512 90.5459 17.3325 90.5459 16.0938C90.5459 14.8551 90.7832 13.6756 91.2591 12.5555C91.735 11.4354 92.3978 10.4498 93.2489 9.5987C94.0993 8.74758 95.0788 8.08751 96.1871 7.61781C97.2941 7.1488 98.4673 6.91431 99.7068 6.91431C100.958 6.91431 102.144 7.15226 103.264 7.62748C104.384 8.10338 105.363 8.76 106.201 9.5987C107.039 10.4498 107.694 11.432 108.163 12.5459C108.632 13.6598 108.868 14.8419 108.868 16.0938C108.868 17.3456 108.632 18.5278 108.163 19.641C107.694 20.7549 107.039 21.7316 106.201 22.5703C105.363 23.409 104.384 24.0656 103.264 24.5415C102.144 25.0167 100.958 25.2547 99.7068 25.2547C98.4673 25.2547 97.2941 25.0195 96.1871 24.5498Z" fill="#6272F0"/>
    <path d="M121.952 21.4812C122.658 21.1805 123.282 20.7549 123.819 20.2045C124.357 19.6665 124.774 19.0444 125.068 18.3368C125.361 17.6305 125.509 16.8821 125.509 16.0938C125.509 15.3054 125.361 14.5578 125.068 13.8508C124.774 13.1432 124.357 12.521 123.819 11.9831C123.282 11.4444 122.658 11.025 121.952 10.725C121.245 10.4243 120.484 10.2746 119.671 10.2746C118.87 10.2746 118.116 10.4243 117.409 10.725C116.702 11.025 116.078 11.4444 115.541 11.9831C115.003 12.521 114.584 13.1432 114.284 13.8508C113.983 14.5578 113.833 15.3054 113.833 16.0938C113.833 16.8821 113.983 17.6305 114.284 18.3368C114.584 19.0444 115.003 19.6665 115.541 20.2045C116.078 20.7549 116.702 21.1805 117.409 21.4812C118.116 21.7819 118.87 21.9309 119.671 21.9309C120.484 21.9309 121.245 21.7819 121.952 21.4812ZM116.151 24.5498C115.043 24.0815 114.064 23.4214 113.213 22.5703C112.362 21.7316 111.699 20.7515 111.223 19.6321C110.748 18.512 110.51 17.3325 110.51 16.0938C110.51 14.8551 110.748 13.6756 111.223 12.5555C111.699 11.4354 112.362 10.4498 113.213 9.5987C114.064 8.74758 115.043 8.08751 116.151 7.61781C117.258 7.1488 118.432 6.91431 119.671 6.91431C120.922 6.91431 122.108 7.15226 123.229 7.62748C124.348 8.10338 125.328 8.76 126.166 9.5987C127.004 10.4498 127.658 11.432 128.127 12.5459C128.597 13.6598 128.832 14.8419 128.832 16.0938C128.832 17.3456 128.597 18.5278 128.127 19.641C127.658 20.7549 127.004 21.7316 126.166 22.5703C125.328 23.409 124.348 24.0656 123.229 24.5415C122.108 25.0167 120.922 25.2547 119.671 25.2547C118.432 25.2547 117.258 25.0195 116.151 24.5498Z" fill="#6272F0"/>
    <path d="M147.025 0.417969C148.269 0.417969 149.108 1.68913 148.621 2.83338L139.552 24.1085C139.391 24.4182 139.183 24.6686 138.933 24.8479C138.683 25.0286 138.397 25.121 138.069 25.121C137.671 25.121 137.338 25.0286 137.075 24.8389C136.811 24.6492 136.618 24.4092 136.493 24.1085L130.263 9.36986C130.161 9.14363 130.111 8.90843 130.111 8.65875C130.111 8.2194 130.272 7.83592 130.591 7.50278C130.91 7.17034 131.307 7.00412 131.783 7.00412C132.093 7.00412 132.384 7.09171 132.657 7.26758C132.925 7.44277 133.128 7.69246 133.267 8.02077L138.032 19.5053L145.419 1.49463C145.687 0.84353 146.321 0.417969 147.025 0.417969Z" fill="#F4A94A"/>
    <path d="M145.777 9.37207C145.89 9.09687 145.939 8.86511 145.928 8.67751C145.928 8.23954 145.764 7.85812 145.439 7.53257C145.102 7.19461 144.713 7.02563 144.275 7.02563C143.962 7.02563 143.665 7.11667 143.383 7.29807C143.102 7.47946 142.892 7.72018 142.755 8.0209L140.78 12.8165L143.321 15.1788L145.777 9.37207Z" fill="#F4A94A"/>
</svg>
