<svg width="240" height="585" viewBox="0 0 240 585" fill="none" xmlns="http://www.w3.org/2000/svg" xmlns:xlink="http://www.w3.org/1999/xlink">
    <path d="M18.5873 33.9202C19.7449 33.438 20.7605 32.7668 21.6349 31.9042C22.5081 31.0405 23.1821 30.043 23.6601 28.9095C24.1371 27.776 24.3778 26.5761 24.3778 25.3132C24.3778 24.0282 24.1371 22.8195 23.6601 21.686C23.1821 20.5514 22.5081 19.5539 21.6349 18.6913C20.7605 17.8276 19.7449 17.1608 18.5873 16.6886C17.4297 16.2186 16.2004 15.982 14.9005 15.982C13.6007 15.982 12.3714 16.2186 11.2137 16.6886C10.0561 17.1608 9.03952 17.8276 8.16624 18.6913C7.29297 19.5539 6.61229 20.5514 6.12415 21.686C5.63825 22.8195 5.39305 24.0282 5.39305 25.3132C5.39305 26.5761 5.63825 27.776 6.12415 28.9095C6.61229 30.043 7.29297 31.0405 8.16624 31.9042C9.03952 32.7668 10.0561 33.438 11.2137 33.9202C12.3714 34.4023 13.6007 34.6423 14.9005 34.6423C16.2004 34.6423 17.4297 34.4023 18.5873 33.9202ZM9.15708 38.8269C7.33776 38.0639 5.74794 37.01 4.38765 35.6652C3.00609 34.3216 1.9302 32.7568 1.15881 30.9708C0.385175 29.1849 0 27.2994 0 25.3132V2.73925C0 1.99721 0.264257 1.34474 0.79158 0.78296C1.32002 0.260993 1.95927 0 2.71163 0C3.48414 0 4.11788 0.260993 4.61609 0.78296C5.11431 1.30493 5.36284 1.9563 5.36284 2.73925V16.223C5.72895 15.4202 6.24167 14.6726 6.90111 13.9803C7.56166 13.2881 8.31849 12.6909 9.17273 12.1899C10.0259 11.6879 10.9439 11.2964 11.9303 11.0155C12.9144 10.7346 13.9041 10.5942 14.9005 10.5942C16.9113 10.5942 18.8258 10.9757 20.6451 11.7377C22.4622 12.5007 24.052 13.5535 25.4134 14.8982C26.7737 16.2629 27.8351 17.8387 28.5964 19.6236C29.3588 21.4096 29.7406 23.305 29.7406 25.3132C29.7406 27.2994 29.3588 29.1849 28.5964 30.9708C27.8351 32.7568 26.7737 34.3216 25.4134 35.6652C24.052 37.01 22.4622 38.0639 20.6451 38.8269C18.8258 39.5888 16.9113 39.9704 14.9005 39.9704C12.8898 39.9704 10.9742 39.5888 9.15708 38.8269Z" fill="#4ADDC4"/>
    <path d="M34.9927 39.0799C34.4542 38.5679 34.1844 37.9409 34.1844 37.1988V13.2713C34.1844 12.5082 34.4598 11.8757 35.0084 11.3747C35.5357 10.8528 36.1851 10.5918 36.9587 10.5918C37.6887 10.5918 38.3089 10.8528 38.8172 11.3747C39.3244 11.8967 39.5785 12.5281 39.5785 13.2713V37.1988C39.5785 37.9409 39.3188 38.5679 38.8016 39.0799C38.2832 39.5919 37.6595 39.8463 36.9285 39.8463C36.1761 39.8463 35.5301 39.5919 34.9927 39.0799ZM34.7643 6.13732C34.1553 5.53573 33.8496 4.83351 33.8496 4.03065C33.8496 3.20789 34.1553 2.49571 34.7643 1.89412C35.3521 1.31243 36.0742 1.02051 36.9285 1.02051C37.7402 1.02051 38.4623 1.31243 39.0915 1.89412C39.7006 2.45589 40.0051 3.16808 40.0051 4.03065C40.0051 4.87332 39.7006 5.57665 39.0915 6.13732C38.441 6.73891 37.72 7.04083 36.9285 7.04083C36.0944 7.04083 35.3734 6.73891 34.7643 6.13732Z" fill="#4ADDC4"/>
    <path d="M58.5769 38.9285C58.0888 39.4196 57.4596 39.6662 56.6882 39.6662H56.6568H56.6266C55.2036 39.6662 53.8791 39.4251 52.651 38.944C51.4205 38.4619 50.3492 37.7696 49.4356 36.8672C48.5007 35.9637 47.7797 34.8955 47.2714 33.6613C46.7642 32.4272 46.5112 31.0692 46.5112 29.584V2.85638C46.5112 2.09444 46.7642 1.45746 47.2714 0.945449C47.7797 0.433433 48.4 0.177979 49.1299 0.177979C49.8812 0.177979 50.5316 0.430115 51.0813 0.931072C51.6288 1.47184 51.9042 2.11434 51.9042 2.85638V29.584C51.9042 31.1289 52.3252 32.3221 53.1683 33.1648C54.0113 34.0074 55.1745 34.4299 56.6568 34.4299C57.4293 34.4299 58.0642 34.6798 58.5613 35.1808C59.0595 35.6828 59.3081 36.3055 59.3081 37.0475C59.3081 37.8105 59.0651 38.4375 58.5769 38.9285Z" fill="#4ADDC4"/>
    <path d="M75.7646 38.9285C75.2764 39.4196 74.6473 39.6662 73.8759 39.6662H73.8445H73.8142C72.3913 39.6662 71.0668 39.4251 69.8375 38.944C68.6082 38.4619 67.5368 37.7696 66.6232 36.8672C65.6883 35.9637 64.9674 34.8955 64.4591 33.6613C63.9519 32.4272 63.6978 31.0692 63.6978 29.584V2.85638C63.6978 2.09444 63.9519 1.45746 64.4591 0.945449C64.9674 0.433433 65.5865 0.177979 66.3175 0.177979C67.0688 0.177979 67.7192 0.430115 68.2689 0.931072C68.8164 1.47184 69.0907 2.11434 69.0907 2.85638V29.584C69.0907 31.1289 69.5128 32.3221 70.3559 33.1648C71.1989 34.0074 72.3622 34.4299 73.8445 34.4299C74.617 34.4299 75.2518 34.6798 75.7489 35.1808C76.2471 35.6828 76.4946 36.3055 76.4946 37.0475C76.4946 37.8105 76.2527 38.4375 75.7646 38.9285Z" fill="#4ADDC4"/>
    <path d="M79.4864 38.8853C79.0195 38.3844 78.7866 37.7319 78.7866 36.929C78.7866 36.1461 79.0139 35.5202 79.4707 35.048C79.9286 34.5769 80.5231 34.3413 81.2531 34.3413H93.4431C93.8887 34.3413 94.3365 34.265 94.7832 34.1157C95.2311 33.9653 95.6364 33.7397 96.0025 33.4378C96.8142 32.7765 97.2206 31.904 97.2206 30.8203C97.2206 29.7564 96.8343 28.9436 96.0629 28.3818C95.3116 27.8598 94.4473 27.579 93.4733 27.538H87.8059C86.627 27.538 85.5198 27.308 84.4842 26.8469C83.4474 26.3846 82.5339 25.7432 81.7423 24.9204C80.9687 24.1375 80.3697 23.2196 79.9432 22.1669C79.5166 21.1141 79.3038 20.0149 79.3038 18.8703C79.3038 17.7478 79.5266 16.6785 79.9745 15.6655C80.4212 14.6525 81.0303 13.7645 81.8016 13.0015C82.5742 12.2395 83.4777 11.6479 84.5144 11.2265C85.5501 10.8041 86.6472 10.594 87.8059 10.594H98.3793C99.1496 10.594 99.7911 10.8251 100.298 11.2863C100.807 11.7474 101.061 12.38 101.061 13.1828C101.061 13.9448 100.817 14.5873 100.329 15.1092C99.8203 15.6511 99.2212 15.9209 98.5316 15.9209H87.8351C86.9819 15.9209 86.2408 16.2328 85.6116 16.8543C85.0026 17.4968 84.6969 18.2289 84.6969 19.0516C84.6969 19.9739 85.0126 20.7171 85.6418 21.2788C86.2923 21.8804 87.0222 22.1823 87.8351 22.1823H93.9603C95.1594 22.1823 96.2969 22.4124 97.3739 22.8735C98.4498 23.3358 99.3746 23.9782 100.146 24.801C100.917 25.6028 101.518 26.5405 101.944 27.6143C102.37 28.687 102.583 29.7962 102.583 30.9397C102.583 32.124 102.37 33.2421 101.944 34.2971C101.518 35.3499 100.908 36.2677 100.116 37.0496C99.3232 37.8723 98.395 38.5093 97.328 38.9605C96.2599 39.4128 95.118 39.6384 93.8999 39.6384H81.2531C80.5421 39.6384 79.9543 39.3874 79.4864 38.8853Z" fill="#6272F0"/>
    <path d="M107.655 38.8831C107.127 38.3821 106.864 37.7507 106.864 36.9876V19.5913C106.864 18.2665 107.122 17.0025 107.64 15.7982C108.159 14.595 108.886 13.5312 109.819 12.6089C110.734 11.7054 111.794 10.9987 113.004 10.4867C114.212 9.97469 115.498 9.71924 116.859 9.71924C118.28 9.71924 119.621 10.0001 120.881 10.5619C122.14 11.1237 123.247 11.8967 124.201 12.8787C125.135 11.8967 126.234 11.1237 127.493 10.5619C128.753 10.0001 130.093 9.71924 131.516 9.71924C132.874 9.71924 134.176 9.97469 135.416 10.4867C136.654 10.9987 137.752 11.7054 138.705 12.6089C139.638 13.5312 140.376 14.6005 140.916 15.8136C141.453 17.0279 141.722 18.2864 141.722 19.5913V36.9876C141.722 37.7507 141.462 38.3821 140.944 38.8831C140.427 39.3852 139.793 39.6362 139.042 39.6362C138.289 39.6362 137.656 39.3852 137.137 38.8831C136.618 38.3821 136.36 37.7507 136.36 36.9876V19.7417C136.34 19.139 136.201 18.5628 135.948 18.011C135.693 17.4592 135.343 16.9626 134.898 16.5214C134.449 16.099 133.932 15.7738 133.343 15.5427C132.753 15.3127 132.154 15.1966 131.545 15.1966C130.327 15.1966 129.279 15.608 128.407 16.4307C127.532 17.2336 127.047 18.2366 126.945 19.4409C126.965 19.4807 126.976 19.6012 126.976 19.8014V36.9268C126.976 37.2884 126.902 37.6346 126.762 37.9663C126.619 38.297 126.427 38.5834 126.182 38.8234C125.654 39.3453 125.025 39.6052 124.292 39.6052C123.542 39.6052 122.906 39.3453 122.389 38.8234C121.871 38.3025 121.612 37.6699 121.612 36.9268V19.9518C121.612 19.3104 121.493 18.6988 121.262 18.116C121.027 17.5344 120.707 17.0223 120.302 16.5811C119.347 15.6378 118.23 15.1667 116.949 15.1667C115.772 15.1667 114.734 15.5582 113.842 16.34C113.416 16.7017 113.064 17.1285 112.79 17.6195C112.517 18.1116 112.34 18.638 112.257 19.1998C112.297 19.4 112.318 19.5603 112.318 19.6809L112.228 36.9876C112.228 37.7507 111.968 38.3821 111.45 38.8831C110.932 39.3852 110.307 39.6362 109.577 39.6362C108.823 39.6362 108.185 39.3852 107.655 38.8831Z" fill="#6272F0"/>
    <path d="M164.074 33.9498C165.221 33.4677 166.233 32.7854 167.105 31.9029C167.979 31.0403 168.655 30.0428 169.133 28.9082C169.609 27.7758 169.847 26.5759 169.847 25.3119C169.847 24.0479 169.609 22.8492 169.133 21.7157C168.655 20.5811 167.979 19.5836 167.105 18.721C166.233 17.8573 165.221 17.1849 164.074 16.7039C162.926 16.2217 161.692 15.9818 160.372 15.9818C159.071 15.9818 157.846 16.2217 156.7 16.7039C155.552 17.1849 154.54 17.8573 153.668 18.721C152.795 19.5836 152.113 20.5811 151.627 21.7157C151.138 22.8492 150.895 24.0479 150.895 25.3119C150.895 26.5759 151.138 27.7758 151.627 28.9082C152.113 30.0428 152.795 31.0403 153.668 31.9029C154.54 32.7854 155.552 33.4677 156.7 33.9498C157.846 34.432 159.071 34.6709 160.372 34.6709C161.692 34.6709 162.926 34.432 164.074 33.9498ZM154.659 38.8698C152.86 38.119 151.27 37.0606 149.89 35.696C148.508 34.3513 147.432 32.7798 146.66 30.985C145.887 29.1891 145.502 27.2981 145.502 25.3119C145.502 23.3258 145.887 21.4348 146.66 19.6388C147.432 17.8429 148.508 16.2627 149.89 14.898C151.27 13.5334 152.86 12.4751 154.659 11.722C156.456 10.97 158.36 10.594 160.372 10.594C162.403 10.594 164.328 10.9755 166.146 11.7375C167.964 12.5005 169.554 13.5533 170.914 14.898C172.275 16.2627 173.337 17.8374 174.098 19.6234C174.861 21.4094 175.243 23.3048 175.243 25.3119C175.243 27.3191 174.861 29.2145 174.098 30.9994C173.337 32.7854 172.275 34.3513 170.914 35.696C169.554 37.0407 167.964 38.0935 166.146 38.8566C164.328 39.6185 162.403 40 160.372 40C158.36 40 156.456 39.6229 154.659 38.8698Z" fill="#6272F0"/>
    <path d="M196.482 33.9498C197.628 33.4677 198.641 32.7854 199.513 31.9029C200.386 31.0403 201.062 30.0428 201.54 28.9082C202.016 27.7758 202.256 26.5759 202.256 25.3119C202.256 24.0479 202.016 22.8492 201.54 21.7157C201.062 20.5811 200.386 19.5836 199.513 18.721C198.641 17.8573 197.628 17.1849 196.482 16.7039C195.334 16.2217 194.099 15.9818 192.779 15.9818C191.479 15.9818 190.255 16.2217 189.107 16.7039C187.96 17.1849 186.948 17.8573 186.075 18.721C185.202 19.5836 184.521 20.5811 184.034 21.7157C183.546 22.8492 183.303 24.0479 183.303 25.3119C183.303 26.5759 183.546 27.7758 184.034 28.9082C184.521 30.0428 185.202 31.0403 186.075 31.9029C186.948 32.7854 187.96 33.4677 189.107 33.9498C190.255 34.432 191.479 34.6709 192.779 34.6709C194.099 34.6709 195.334 34.432 196.482 33.9498ZM187.066 38.8698C185.267 38.119 183.677 37.0606 182.297 35.696C180.915 34.3513 179.839 32.7798 179.067 30.985C178.294 29.1891 177.909 27.2981 177.909 25.3119C177.909 23.3258 178.294 21.4348 179.067 19.6388C179.839 17.8429 180.915 16.2627 182.297 14.898C183.677 13.5334 185.267 12.4751 187.066 11.722C188.863 10.97 190.768 10.594 192.779 10.594C194.81 10.594 196.735 10.9755 198.554 11.7375C200.371 12.5005 201.961 13.5533 203.321 14.898C204.682 16.2627 205.744 17.8374 206.506 19.6234C207.268 21.4094 207.65 23.3048 207.65 25.3119C207.65 27.3191 207.268 29.2145 206.506 30.9994C205.744 32.7854 204.682 34.3513 203.321 35.696C201.961 37.0407 200.371 38.0935 198.554 38.8566C196.735 39.6185 194.81 40 192.779 40C190.768 40 188.863 39.6229 187.066 38.8698Z" fill="#6272F0"/>
    <path d="M237.181 0.177979C239.201 0.177979 240.563 2.2161 239.772 4.05073L225.052 38.1622C224.79 38.6588 224.451 39.0602 224.046 39.3477C223.641 39.6374 223.176 39.7856 222.643 39.7856C221.997 39.7856 221.458 39.6374 221.03 39.3333C220.602 39.0292 220.288 38.6444 220.085 38.1622L209.972 14.531C209.807 14.1683 209.726 13.7912 209.726 13.3908C209.726 12.6864 209.988 12.0716 210.505 11.5374C211.023 11.0044 211.668 10.7379 212.441 10.7379C212.943 10.7379 213.416 10.8783 213.858 11.1603C214.293 11.4412 214.624 11.8415 214.849 12.3679L222.584 30.7817L234.575 1.90424C235.009 0.860302 236.038 0.177979 237.181 0.177979Z" fill="#F4A94A"/>
    <path d="M235.156 14.5346C235.338 14.0934 235.419 13.7218 235.4 13.421C235.4 12.7188 235.135 12.1072 234.607 11.5853C234.06 11.0434 233.428 10.7725 232.717 10.7725C232.209 10.7725 231.727 10.9184 231.27 11.2093C230.813 11.5001 230.473 11.8861 230.25 12.3682L227.044 20.0573L231.169 23.8449L235.156 14.5346Z" fill="#F4A94A"/>
</svg>
