<svg width="18" height="22" viewBox="0 0 18 22" fill="none" xmlns="http://www.w3.org/2000/svg">
    <circle cx="8.73555" cy="6.27803" r="4.77803" stroke="url(#paint0_linear_216_994)" stroke-width="1.5" stroke-linecap="round" stroke-linejoin="round"/>
    <path fill-rule="evenodd" clip-rule="evenodd" d="M1.15675 17.7014C1.15547 17.3655 1.23059 17.0338 1.37643 16.7312C1.8341 15.8158 3.12472 15.3307 4.19566 15.111C4.96802 14.9462 5.75104 14.8361 6.53891 14.7815C7.99758 14.6534 9.46467 14.6534 10.9233 14.7815C11.7111 14.8367 12.4941 14.9468 13.2666 15.111C14.3375 15.3307 15.6282 15.7701 16.0858 16.7312C16.3791 17.348 16.3791 18.064 16.0858 18.6808C15.6282 19.6419 14.3375 20.0813 13.2666 20.2918C12.4951 20.4635 11.7118 20.5767 10.9233 20.6305C9.73611 20.7311 8.54332 20.7495 7.35355 20.6854C7.07895 20.6854 6.81351 20.6854 6.53891 20.6305C5.75337 20.5773 4.97306 20.4641 4.20481 20.2918C3.12472 20.0813 1.84325 19.6419 1.37643 18.6808C1.23134 18.3747 1.15629 18.0402 1.15675 17.7014Z" stroke="url(#paint1_linear_216_994)" stroke-width="1.5" stroke-linecap="round" stroke-linejoin="round"/>
    <defs>
        <linearGradient id="paint0_linear_216_994" x1="15.6066" y1="-5.76437" x2="21.0713" y2="2.35908" gradientUnits="userSpaceOnUse">
            <stop stop-color="#26468B"/>
            <stop offset="1" stop-color="#26468B"/>
        </linearGradient>
        <linearGradient id="paint1_linear_216_994" x1="19.6238" y1="10.0959" x2="21.4884" y2="17.0508" gradientUnits="userSpaceOnUse">
            <stop stop-color="#26468B"/>
            <stop offset="1" stop-color="#26468B"/>
        </linearGradient>
    </defs>
</svg>
