<svg width="20" height="20" viewBox="0 0 20 20" fill="none" xmlns="http://www.w3.org/2000/svg">
    <path d="M5.37457 18.9384L5.25724 19.6792H5.25724L5.37457 18.9384ZM1.2183 14.7822L1.95906 14.6648L1.2183 14.7822ZM19.0952 14.7822L19.8359 14.8995V14.8995L19.0952 14.7822ZM14.9389 18.9384L15.0562 19.6792H15.0562L14.9389 18.9384ZM18.7568 8.54956C18.508 8.21837 18.0379 8.15156 17.7067 8.40032C17.3755 8.64909 17.3087 9.11924 17.5574 9.45043L18.7568 8.54956ZM2.75605 9.45043C3.00481 9.11924 2.938 8.64909 2.60681 8.40032C2.27561 8.15156 1.80546 8.21837 1.5567 8.54956L2.75605 9.45043ZM9.40674 15C9.40674 15.4142 9.74253 15.75 10.1567 15.75C10.571 15.75 10.9067 15.4142 10.9067 15H9.40674ZM5.56906 4.53403C5.31171 4.8586 5.3662 5.33034 5.69077 5.58768C6.01534 5.84503 6.48707 5.79054 6.74442 5.46597L5.56906 4.53403ZM7.55459 3.23703L6.9669 2.77106L7.55459 3.23703ZM12.7589 3.23703L13.3466 2.77106L12.7589 3.23703ZM13.5691 5.46597C13.8264 5.79054 14.2981 5.84503 14.6227 5.58768C14.9473 5.33034 15.0018 4.8586 14.7444 4.53403L13.5691 5.46597ZM9.90607 1.01989L9.78807 0.279231L9.78807 0.279232L9.90607 1.01989ZM10.4074 1.01989L10.5254 0.279232L10.5254 0.279231L10.4074 1.01989ZM18.4067 12V13H19.9067V12H18.4067ZM13.1567 18.25H7.15674V19.75H13.1567V18.25ZM1.90674 13V12H0.406738V13H1.90674ZM7.15674 18.25C6.19907 18.25 5.80756 18.2477 5.49189 18.1977L5.25724 19.6792C5.7189 19.7523 6.25639 19.75 7.15674 19.75V18.25ZM0.406738 13C0.406738 13.9003 0.404411 14.4378 0.47753 14.8995L1.95906 14.6648C1.90907 14.3492 1.90674 13.9577 1.90674 13H0.406738ZM5.49189 18.1977C3.67335 17.9096 2.24709 16.4834 1.95906 14.6648L0.47753 14.8995C0.867217 17.3599 2.79686 19.2895 5.25724 19.6792L5.49189 18.1977ZM18.4067 13C18.4067 13.9577 18.4044 14.3492 18.3544 14.6648L19.8359 14.8995C19.9091 14.4378 19.9067 13.9003 19.9067 13H18.4067ZM13.1567 19.75C14.0571 19.75 14.5946 19.7523 15.0562 19.6792L14.8216 18.1977C14.5059 18.2477 14.1144 18.25 13.1567 18.25V19.75ZM18.3544 14.6648C18.0664 16.4834 16.6401 17.9096 14.8216 18.1977L15.0562 19.6792C17.5166 19.2895 19.4463 17.3599 19.8359 14.8995L18.3544 14.6648ZM19.9067 12C19.9067 10.7064 19.4787 9.51064 18.7568 8.54956L17.5574 9.45043C18.0909 10.1607 18.4067 11.0424 18.4067 12H19.9067ZM1.90674 12C1.90674 11.0424 2.22256 10.1607 2.75605 9.45043L1.5567 8.54956C0.834802 9.51064 0.406738 10.7064 0.406738 12H1.90674ZM10.9067 15V2H9.40674V15H10.9067ZM6.74442 5.46597L8.14227 3.703L6.9669 2.77106L5.56906 4.53403L6.74442 5.46597ZM12.1712 3.703L13.5691 5.46597L14.7444 4.53403L13.3466 2.77106L12.1712 3.703ZM8.14227 3.703C8.71103 2.98568 9.09851 2.49884 9.42496 2.17113C9.74806 1.84678 9.9179 1.77747 10.0241 1.76055L9.78807 0.279232C9.2149 0.370553 8.76637 0.706845 8.36225 1.11252C7.96149 1.51484 7.5129 2.08245 6.9669 2.77106L8.14227 3.703ZM13.3466 2.77106C12.8006 2.08245 12.352 1.51484 11.9512 1.11252C11.5471 0.706846 11.0986 0.370553 10.5254 0.279232L10.2894 1.76055C10.3956 1.77747 10.5654 1.84678 10.8885 2.17113C11.215 2.49884 11.6024 2.98568 12.1712 3.703L13.3466 2.77106ZM10.0241 1.76055C10.0684 1.75348 10.1127 1.75 10.1567 1.75V0.25C10.0334 0.25 9.91018 0.259776 9.78807 0.279231L10.0241 1.76055ZM10.1567 1.75C10.2008 1.75 10.2451 1.75348 10.2894 1.76055L10.5254 0.279231C10.4033 0.259776 10.2801 0.25 10.1567 0.25V1.75ZM10.9067 2V1H9.40674V2H10.9067Z" fill="#26468B"/>
</svg>
